<svg width="1441" height="770" viewBox="0 0 1441 770" fill="none" xmlns="http://www.w3.org/2000/svg">
<rect width="1440" height="770" fill="#E42C2D"/>
<path d="M393.068 256.249V181.612H319.105V256.249H393.068ZM374.511 237.701H337.663V200.169H374.51V237.701H374.511Z" fill="#C72E2E"/>
<path d="M385.119 364.999H404.123V364.79C404.123 333.799 379.016 308.692 348.034 308.692C341.534 308.692 335.292 309.801 329.496 311.833C307.63 319.482 291.945 340.308 291.945 364.79C291.945 371.29 293.045 377.532 295.087 383.328C302.736 405.204 323.552 420.879 348.035 420.879C348.253 420.879 348.48 420.879 348.709 420.869V401.866C348.48 401.875 348.253 401.875 348.035 401.875C334.303 401.875 322.324 394.415 315.903 383.328C312.753 377.879 310.94 371.547 310.94 364.79C310.94 351.058 318.4 339.069 329.497 332.649C334.946 329.499 341.287 327.695 348.035 327.695C368.525 327.695 385.121 344.301 385.121 364.79V364.999H385.119Z" fill="#C72E2E"/>
<path d="M529.408 510.646C529.408 490.295 512.922 473.808 492.581 473.808C472.23 473.808 455.743 490.295 455.743 510.646C455.743 530.986 472.23 547.473 492.581 547.473C512.922 547.473 529.408 530.987 529.408 510.646Z" fill="#C72E2E"/>
<path d="M693.207 656.6C693.207 650.091 692.107 643.849 690.066 638.053C682.407 616.185 661.6 600.502 637.118 600.502C636.89 600.502 636.662 600.502 636.444 600.511V619.515C636.662 619.505 636.889 619.505 637.118 619.505C650.85 619.505 662.829 626.965 669.249 638.053C672.389 643.512 674.213 649.832 674.213 656.6C674.213 670.322 666.742 682.321 655.655 688.731C650.206 691.882 643.865 693.685 637.118 693.685C616.628 693.685 600.022 677.079 600.022 656.6V656.382H581.019V656.6C581.019 687.582 606.135 712.689 637.118 712.689C643.607 712.689 649.859 711.58 655.655 709.558C677.523 701.899 693.207 681.072 693.207 656.6Z" fill="#C72E2E"/>
<path d="M565.504 291.866H419.647V300.998H565.504V291.866Z" fill="#C72E2E"/>
<path d="M565.504 319.191H419.647V337.392H565.504V319.191Z" fill="#C72E2E"/>
<path d="M565.504 355.593H419.647V373.922H565.504V355.593Z" fill="#C72E2E"/>
<path d="M565.504 392.124H419.647V410.389H565.504V392.124Z" fill="#C72E2E"/>
<path d="M565.504 428.582H419.647V437.714H565.504V428.582Z" fill="#C72E2E"/>
<path d="M428.78 583.663H419.647V729.52H428.78V583.663Z" fill="#C72E2E"/>
<path d="M465.175 583.663H446.974V729.519H465.175V583.663Z" fill="#C72E2E"/>
<path d="M501.705 583.663H483.375V729.519H501.705V583.663Z" fill="#C72E2E"/>
<path d="M538.171 583.663H519.906V729.519H538.171V583.663Z" fill="#C72E2E"/>
<path d="M565.496 583.663H556.364V729.519H565.496V583.663Z" fill="#C72E2E"/>
<path d="M428.748 146.002H419.615V291.859H428.748V146.002Z" fill="#C72E2E"/>
<path d="M465.142 146.002H446.941V291.859H465.142V146.002Z" fill="#C72E2E"/>
<path d="M501.673 146.002H483.343V291.859H501.673V146.002Z" fill="#C72E2E"/>
<path d="M538.139 146.002H519.874V291.859H538.139V146.002Z" fill="#C72E2E"/>
<path d="M565.464 146.002H556.331V291.859H565.464V146.002Z" fill="#C72E2E"/>
<path d="M292.592 513.397V511.231V456.78H347.183H348.526H419.582V467.316H377.8H376.457H303.128V467.326V486.053V540.505V542.671V583.57H292.592V567.849V513.397Z" fill="#C72E2E"/>
<path d="M419.582 544.6V555.138H390.949V555.146V573.874V583.569H380.412V544.6H419.582Z" fill="#C72E2E"/>
<path d="M321.865 540.505V486.053H376.457H377.8H419.582V496.59H407.074H405.731H332.402V496.599V515.327V569.779V571.945V583.57H321.865V542.671V540.505Z" fill="#C72E2E"/>
<path d="M351.139 569.779V515.327H405.731H407.074H419.582V525.864H361.676V525.873V544.6V583.57H351.139V571.945V569.779Z" fill="#C72E2E"/>
<path d="M419.583 573.874H409.686V583.57H419.583V573.874Z" fill="#C72E2E"/>
<path d="M711.421 583.663H696.165L565.566 453.063V437.808H577.403L711.421 571.825V583.663Z" fill="#C72E2E"/>
<path d="M685.494 437.808L711.421 463.734V491.043L658.186 437.808H685.494Z" fill="#C72E2E"/>
<path d="M642.376 583.663L565.566 506.853V479.958L669.27 583.663H642.376Z" fill="#C72E2E"/>
<path d="M591.491 583.663L565.566 557.737V533.747L615.481 583.663H591.491Z" fill="#C72E2E"/>
<path d="M631.291 437.808L711.42 517.937V544.931L604.297 437.808H631.291Z" fill="#C72E2E"/>
<path d="M292.592 75.5661V73.3992V18.9478H347.183H348.526H419.582V29.4851H377.8H376.457H303.128V29.4936V48.2216V102.673V104.839V145.738H292.592V130.018V75.5661Z" fill="#C72E2E"/>
<path d="M419.582 106.769V117.306H390.949V117.314V136.042V145.738H380.412V106.769H419.582Z" fill="#C72E2E"/>
<path d="M321.865 102.673V48.2214H376.457H377.8H419.582V58.758H407.074H405.731H332.402V58.7673V77.4952V131.947V134.113V145.738H321.865V104.839V102.673Z" fill="#C72E2E"/>
<path d="M351.139 131.947V77.4954H405.731H407.074H419.582V88.0319H361.676V88.0404V106.769V145.738H351.139V134.113V131.947Z" fill="#C72E2E"/>
<path d="M419.583 136.042H409.686V145.738H419.583V136.042Z" fill="#C72E2E"/>
<path d="M711.422 437.806H711.144C711.239 437.648 711.328 437.485 711.422 437.326V437.806Z" fill="#C72E2E"/>
<path d="M244.332 264.762C246.118 259.676 247.184 254.253 247.416 248.614C265.974 247.845 282.194 238.033 291.805 223.48V291.505H224.453C233.535 284.874 240.552 275.574 244.332 264.762Z" fill="#C72E2E"/>
<path d="M177.412 291.506H146.23V260.325C150.932 261.014 155.353 262.576 159.309 264.866C168.882 270.4 175.738 280.108 177.412 291.506Z" fill="#C72E2E"/>
<path d="M191.485 209.231C198.221 209.231 204.541 211.033 209.987 214.181C221.057 220.581 228.498 232.555 228.498 246.251C228.498 253.003 226.696 259.316 223.556 264.762C217.717 274.855 207.24 281.91 195.049 283.08C190.412 264.874 176.859 250.224 159.31 244.081C157.781 243.545 156.218 243.08 154.633 242.671C156.435 223.904 172.246 209.231 191.485 209.231Z" fill="#C72E2E"/>
<path d="M209.987 193.396C209.346 193.172 208.689 192.964 208.032 192.756V192.675C208.032 172.227 224.612 155.655 245.06 155.655C251.796 155.655 258.116 157.456 263.562 160.605C274.632 167.004 282.073 178.979 282.073 192.675C282.073 199.427 280.271 205.739 277.123 211.186C270.723 222.247 258.765 229.695 245.06 229.695H244.964C239.727 212.747 226.663 199.235 209.987 193.396Z" fill="#C72E2E"/>
<path d="M146.231 145.931H214.257C199.695 155.543 189.9 171.762 189.131 190.329C171.502 191.058 155.979 199.933 146.231 213.301V145.931V145.931Z" fill="#C72E2E"/>
<path d="M275.858 145.931H291.805V161.862C287.624 155.535 282.185 150.112 275.858 145.931Z" fill="#C72E2E"/>
<path d="M146.231 145.931H214.257C199.695 155.543 189.9 171.762 189.131 190.329C171.502 191.058 155.979 199.933 146.231 213.301V145.931V145.931Z" fill="#C72E2E"/>
<path d="M191.485 209.231C198.221 209.231 204.541 211.033 209.987 214.181C221.057 220.581 228.498 232.555 228.498 246.251C228.498 253.003 226.696 259.316 223.556 264.762C217.717 274.855 207.24 281.91 195.049 283.08C190.412 264.874 176.859 250.224 159.31 244.081C157.781 243.545 156.218 243.08 154.633 242.671C156.435 223.904 172.246 209.231 191.485 209.231Z" fill="#C72E2E"/>
<path d="M275.858 145.931H291.805V161.862C287.624 155.535 282.185 150.112 275.858 145.931Z" fill="#C72E2E"/>
<path d="M245.061 155.655C251.797 155.655 258.117 157.456 263.563 160.605C274.633 167.004 282.074 178.979 282.074 192.675C282.074 199.427 280.272 205.739 277.124 211.186C270.724 222.247 258.766 229.695 245.061 229.695H244.965C239.727 212.747 226.663 199.235 209.987 193.396C209.346 193.172 208.689 192.963 208.032 192.755V192.674C208.032 172.227 224.612 155.655 245.061 155.655Z" fill="#C72E2E"/>
<path d="M146.231 260.325C150.933 261.014 155.354 262.576 159.31 264.866C168.882 270.401 175.738 280.109 177.412 291.507H146.23V260.325H146.231Z" fill="#C72E2E"/>
<path d="M291.805 223.48V291.505H224.453C233.535 284.874 240.552 275.574 244.332 264.762C246.118 259.676 247.184 254.253 247.416 248.614C265.974 247.845 282.194 238.033 291.805 223.48Z" fill="#C72E2E"/>
<path d="M121.489 81.4879C111.469 74.9397 103.855 65.757 97.4005 55.6363C93.5353 49.5745 90.0859 43.1791 86.7825 36.8134C84.0478 31.5485 80.8794 25.6793 77.7458 20.5901C75.011 16.1333 72.3052 12.2739 69.9507 9.91948C69.6698 9.64448 69.3939 9.3924 69.1308 9.15814C63.7293 4.30492 56.9002 1.02106 49.3479 0H0V58.9575C5.35993 61.9155 10.1953 65.7061 14.305 70.1799H14.311C15.2421 71.0168 16.3955 72.3994 17.7137 74.2497C17.7255 74.2735 17.7434 74.2913 17.7544 74.3083C19.7278 76.908 21.4847 79.6903 22.9845 82.6244C22.9904 82.6304 22.9964 82.6423 22.9964 82.6473C25.0461 86.2028 27.2656 90.3609 29.5734 95.0113C30.6861 97.2367 31.8167 99.5793 32.9523 102.015C39.4471 115.907 49.8486 127.176 58.3057 134.818C59.3599 135.773 60.3852 136.669 61.3689 137.513H61.3748C67.1787 142.075 74.3711 144.945 82.2187 145.378L103.115 145.407V146.091H146.09V92.2816C136.946 90.6962 128.555 86.9124 121.493 81.482L121.489 81.4879ZM93.5438 99.5818C94.5979 100.537 95.6232 101.433 96.6069 102.276H96.6129C102.417 106.838 109.609 109.708 117.457 110.141L138.353 110.171V129.357H117.457V129.317C105.363 128.878 94.2406 124.619 85.2624 117.714L85.2564 117.72C75.236 111.173 67.6217 101.989 61.1677 91.8691C57.3025 85.8073 53.8531 79.4119 50.5497 73.0453C47.815 67.7804 44.6466 61.9121 41.513 56.8229C38.7782 52.3661 36.0724 48.5059 33.7179 46.1523C33.437 45.8773 33.162 45.6252 32.898 45.3909C26.321 39.4819 17.6296 35.8916 8.0887 35.8916C7.97157 35.8916 7.85444 35.8916 7.73731 35.8975V16.741C7.85444 16.735 7.97157 16.735 8.0887 16.735C24.4936 16.735 39.2578 23.7509 49.5422 34.9435H49.5482C50.4793 35.7813 51.6327 37.1639 52.9509 39.0142C52.9628 39.038 52.9797 39.0558 52.9916 39.0728C54.965 41.6734 56.7219 44.4556 58.2217 47.3898C58.2276 47.3957 58.2336 47.4067 58.2336 47.4127C60.2833 50.9682 62.5028 55.1254 64.8106 59.7758C65.9233 62.0012 67.0539 64.3438 68.1895 66.7806C74.6851 80.6706 85.0867 91.9396 93.5438 99.5818Z" fill="#C72E2E"/>
<path d="M25.9305 127.106C22.0653 121.044 18.6159 114.649 15.3125 108.283C12.5778 103.018 9.40937 97.1493 6.27575 92.0601C4.1114 88.5335 1.96828 85.3939 0 83.0649V145.612C0.0942126 145.771 0.183333 145.934 0.278394 146.092H41.2838C35.3484 140.573 30.3662 134.06 25.9305 127.106Z" fill="#C72E2E"/>
<path d="M123.425 0.169752C123.396 0.113734 123.366 0.0560183 123.337 0H87.0244C87.6788 0.752852 88.4011 1.6814 89.1837 2.7797C89.1955 2.80346 89.2134 2.82128 89.2244 2.83826C91.1978 5.43887 92.9547 8.22111 94.4545 11.1553C94.4604 11.1612 94.4664 11.1731 94.4664 11.1782C96.5161 14.7337 98.7356 18.8917 101.043 23.5413C102.156 25.7667 103.287 28.1101 104.422 30.5461C110.917 44.4378 121.319 55.7068 129.776 63.349C130.83 64.3039 131.854 65.2002 132.839 66.043H132.845C136.714 69.085 141.203 71.369 146.091 72.6854V34.6991C141.575 29.9469 137.629 24.6149 134.044 18.9927C130.178 12.9317 126.729 6.53547 123.425 0.169752Z" fill="#C72E2E"/>
<path d="M146.091 3.03263V0H144.261C144.854 1.0287 145.463 2.03957 146.091 3.03263Z" fill="#C72E2E"/>
<path d="M0 146.091H0.278394C0.183333 145.933 0.0942126 145.77 0 145.61V146.091Z" fill="#C72E2E"/>
<path d="M109.933 656.555C109.933 636.204 93.447 619.717 73.1055 619.717C52.7548 619.717 36.2676 636.204 36.2676 656.555C36.2676 676.895 52.7548 693.383 73.1055 693.383C93.447 693.383 109.933 676.896 109.933 656.555Z" fill="#C72E2E"/>
<path d="M146.029 437.774H0.172363V446.907H146.029V437.774Z" fill="#C72E2E"/>
<path d="M146.029 465.1H0.172363V483.301H146.029V465.1Z" fill="#C72E2E"/>
<path d="M146.029 501.502H0.172363V519.831H146.029V501.502Z" fill="#C72E2E"/>
<path d="M146.029 538.033H0.172363V556.298H146.029V538.033Z" fill="#C72E2E"/>
<path d="M146.029 574.49H0.172363V583.623H146.029V574.49Z" fill="#C72E2E"/>
<path d="M291.945 729.572H276.69L146.091 598.972V583.717H157.928L291.945 717.734V729.572Z" fill="#C72E2E"/>
<path d="M266.019 583.717L291.946 609.643V636.952L238.71 583.717H266.019Z" fill="#C72E2E"/>
<path d="M222.9 729.572L146.091 652.762V625.867L249.795 729.572H222.9Z" fill="#C72E2E"/>
<path d="M172.016 729.572L146.091 703.647V679.656L196.006 729.572H172.016Z" fill="#C72E2E"/>
<path d="M211.817 583.717L291.946 663.846V690.84L184.823 583.717H211.817Z" fill="#C72E2E"/>
<path d="M296.97 592.38H296.691C296.786 592.222 296.876 592.059 296.97 591.9V592.38Z" fill="#C72E2E"/>
<path d="M146.202 291.9H0V437.789H146.202V291.9Z" fill="#C72E2E"/>
<path d="M1227.9 724.592H1194.42V757.804H1227.9V724.592ZM1219.58 732.925V749.471H1202.74V732.925H1219.58V732.925Z" fill="white"/>
<path d="M1276.69 728.161V719.627H1276.6C1262.7 719.627 1251.43 730.901 1251.43 744.814C1251.43 747.732 1251.93 750.535 1252.84 753.138C1256.27 762.957 1265.62 770 1276.6 770C1279.52 770 1282.32 769.506 1284.92 768.59C1294.73 765.155 1301.76 755.807 1301.76 744.814C1301.76 744.716 1301.76 744.614 1301.76 744.512H1293.23C1293.24 744.614 1293.24 744.716 1293.24 744.814C1293.24 750.98 1289.89 756.359 1284.92 759.242C1282.47 760.657 1279.63 761.471 1276.6 761.471C1270.44 761.471 1265.06 758.121 1262.18 753.138C1260.77 750.691 1259.96 747.844 1259.96 744.814C1259.96 735.613 1267.41 728.161 1276.6 728.161H1276.69V728.161Z" fill="white"/>
<path d="M1342.04 663.37C1332.91 663.37 1325.51 670.773 1325.51 679.907C1325.51 689.045 1332.91 696.448 1342.04 696.448C1351.16 696.448 1358.56 689.045 1358.56 679.907C1358.56 670.773 1351.16 663.37 1342.04 663.37Z" fill="white"/>
<path d="M1407.52 589.818C1404.6 589.818 1401.8 590.312 1399.2 591.228C1389.39 594.668 1382.35 604.01 1382.35 615.004C1382.35 615.106 1382.35 615.208 1382.35 615.306H1390.88C1390.87 615.208 1390.87 615.106 1390.87 615.004C1390.87 608.838 1394.22 603.459 1399.2 600.576C1401.64 599.166 1404.48 598.347 1407.52 598.347C1413.67 598.347 1419.06 601.701 1421.93 606.68C1423.35 609.127 1424.16 611.974 1424.16 615.004C1424.16 624.205 1416.71 631.662 1407.52 631.662H1407.42V640.195H1407.52C1421.42 640.195 1432.68 628.917 1432.68 615.005C1432.68 612.091 1432.18 609.283 1431.28 606.68C1427.84 596.861 1418.5 589.818 1407.52 589.818Z" fill="white"/>
<path d="M1247.98 647.162H1243.88V712.657H1247.98V647.162Z" fill="white"/>
<path d="M1264.31 647.162H1256.14V712.657H1264.31V647.162Z" fill="white"/>
<path d="M1280.7 647.162H1272.47V712.657H1280.7V647.162Z" fill="white"/>
<path d="M1297.06 647.162H1288.86V712.657H1297.06V647.162Z" fill="white"/>
<path d="M1309.32 647.162H1305.22V712.657H1309.32V647.162Z" fill="white"/>
<path d="M1378.9 516.191H1374.8V581.686H1378.9V516.191Z" fill="white"/>
<path d="M1395.22 516.191H1387.06V581.686H1395.22V516.191Z" fill="white"/>
<path d="M1411.61 516.191H1403.39V581.686H1411.61V516.191Z" fill="white"/>
<path d="M1427.97 516.191H1419.78V581.686H1427.97V516.191Z" fill="white"/>
<path d="M1440.23 516.191H1436.13V581.686H1440.23V516.191Z" fill="white"/>
<path d="M1440.23 708.556H1374.8V712.656H1440.23V708.556Z" fill="white"/>
<path d="M1440.23 692.213H1374.8V700.386H1440.23V692.213Z" fill="white"/>
<path d="M1440.23 675.81H1374.8V684.04H1440.23V675.81Z" fill="white"/>
<path d="M1440.23 659.435H1374.8V667.637H1440.23V659.435Z" fill="white"/>
<path d="M1440.23 647.165H1374.8V651.265H1440.23V647.165Z" fill="white"/>
<path d="M1243.88 708.57H1178.44V712.671H1243.88V708.57Z" fill="white"/>
<path d="M1243.88 692.228H1178.44V700.401H1243.88V692.228Z" fill="white"/>
<path d="M1243.88 675.824H1178.44V684.055H1243.88V675.824Z" fill="white"/>
<path d="M1243.88 659.449H1178.44V667.651H1243.88V659.449Z" fill="white"/>
<path d="M1243.88 647.179H1178.44V651.28H1243.88V647.179Z" fill="white"/>
<path d="M1343.27 769.709H1342.3H1317.87V745.195V744.592V712.686H1322.6V731.448V732.051V764.978H1322.6H1331H1355.43H1356.4H1374.75V769.709H1367.7H1343.27Z" fill="white"/>
<path d="M1357.27 712.686H1362V725.543H1362H1370.4H1374.75V730.274H1357.27V712.686Z" fill="white"/>
<path d="M1355.43 756.564H1331V732.051V731.448V712.686H1335.73V718.303V718.905V751.833H1335.73H1344.14H1368.57H1369.54H1374.75V756.564H1356.4H1355.43Z" fill="white"/>
<path d="M1368.57 743.419H1344.14V718.905V718.303V712.686H1348.86V738.688H1348.87H1357.27H1374.75V743.419H1369.54H1368.57Z" fill="white"/>
<path d="M1374.75 712.686H1370.4V717.13H1374.75V712.686Z" fill="white"/>
<path d="M1374.79 581.639V588.489L1316.2 647.134H1309.36V641.818L1369.48 581.639H1374.79Z" fill="white"/>
<path d="M1309.36 593.281L1320.99 581.639H1333.24L1309.36 605.544V593.281Z" fill="white"/>
<path d="M1374.79 612.643L1340.33 647.134H1328.27L1374.79 600.567V612.643Z" fill="white"/>
<path d="M1374.79 635.492L1363.16 647.134H1352.4L1374.79 624.72V635.492Z" fill="white"/>
<path d="M1309.36 617.62L1345.31 581.639H1357.42L1309.36 629.742V617.62Z" fill="white"/>
<path d="M1146.84 769.709H1145.87H1121.44V745.195V744.592V712.686H1126.17V731.448V732.051V764.978H1126.17H1134.57H1159H1159.97H1178.32V769.709H1171.27H1146.84Z" fill="white"/>
<path d="M1160.84 712.686H1165.57V725.543H1165.57H1173.97H1178.32V730.274H1160.84V712.686Z" fill="white"/>
<path d="M1159 756.564H1134.57V732.051V731.448V712.686H1139.3V718.303V718.905V751.833H1139.3H1147.71H1172.14H1173.11H1178.32V756.564H1159.97H1159Z" fill="white"/>
<path d="M1172.14 743.419H1147.71V718.905V718.303V712.686H1152.43V738.688H1152.44H1160.84H1178.32V743.419H1173.11H1172.14Z" fill="white"/>
<path d="M1178.32 712.686H1173.97V717.13H1178.32V712.686Z" fill="white"/>
<path d="M1309.36 581.638V581.763C1309.29 581.721 1309.21 581.68 1309.14 581.638H1309.36Z" fill="white"/>
<path d="M1439.99 322.617L1375.46 322.617L1375.46 387.142L1439.99 387.142L1439.99 322.617ZM1400.13 378.309C1390.46 374.922 1383.52 365.71 1383.52 354.882C1383.52 352.006 1384.01 349.244 1384.91 346.677C1388.3 337.003 1397.5 330.066 1408.34 330.066C1408.43 330.066 1408.53 330.066 1408.63 330.069L1408.63 338.476C1408.53 338.473 1408.44 338.473 1408.34 338.473C1402.26 338.473 1396.96 341.774 1394.12 346.677C1392.73 349.091 1391.93 351.889 1391.93 354.882C1391.93 360.952 1395.23 366.26 1400.14 369.097C1402.55 370.492 1405.35 371.291 1408.34 371.291C1417.4 371.291 1424.75 363.945 1424.75 354.882L1424.75 354.786L1433.15 354.786L1433.15 354.882C1433.15 368.589 1422.04 379.697 1408.34 379.697C1405.46 379.697 1402.7 379.207 1400.13 378.309Z" fill="white"/>
<path d="M1439.98 391.182L1439.98 387.142L1375.46 387.142L1375.46 391.182L1439.98 391.182Z" fill="white"/>
<path d="M1439.99 407.286L1439.99 399.234L1375.46 399.234L1375.46 407.286L1439.99 407.286Z" fill="white"/>
<path d="M1439.99 423.446L1439.99 415.334L1375.46 415.334L1375.46 423.446L1439.99 423.446Z" fill="white"/>
<path d="M1439.99 439.574L1439.99 431.494L1375.46 431.494L1375.46 439.574L1439.99 439.574Z" fill="white"/>
<path d="M1439.99 451.666L1439.99 447.626L1375.46 447.626L1375.46 451.666L1439.99 451.666Z" fill="white"/>
<path d="M1383.81 289.137L1383.81 290.096L1383.81 314.184L1407.96 314.184L1408.55 314.184L1439.99 314.184L1439.99 309.523L1421.5 309.523L1420.91 309.523L1388.47 309.523L1388.47 309.519L1388.47 301.234L1388.47 277.146L1388.47 276.187L1388.47 258.094L1383.81 258.094L1383.81 265.049L1383.81 289.137Z" fill="white"/>
<path d="M1439.99 275.334L1439.99 270.672L1427.32 270.672L1427.32 270.669L1427.32 262.384L1427.32 258.094L1422.66 258.094L1422.66 275.334L1439.99 275.334Z" fill="white"/>
<path d="M1396.76 277.146L1396.76 301.234L1420.91 301.234L1421.5 301.234L1439.99 301.234L1439.99 296.573L1434.45 296.573L1433.86 296.573L1401.42 296.573L1401.42 296.569L1401.42 288.284L1401.42 264.195L1401.42 263.237L1401.42 258.094L1396.76 258.094L1396.76 276.187L1396.76 277.146Z" fill="white"/>
<path d="M1409.71 264.195L1409.71 288.284L1433.86 288.284L1434.45 288.284L1439.99 288.284L1439.99 283.622L1414.37 283.622L1414.37 283.619L1414.37 275.334L1414.37 258.094L1409.71 258.094L1409.71 263.237L1409.71 264.195Z" fill="white"/>
<path d="M1439.99 262.384L1439.99 258.094L1435.61 258.094L1435.61 262.384L1439.99 262.384Z" fill="white"/>
<path d="M1396.5 463.52C1395.71 465.775 1395.24 468.178 1395.14 470.677C1386.91 471.018 1379.72 475.367 1375.46 481.818L1375.46 451.666L1405.32 451.666C1401.29 454.606 1398.18 458.728 1396.5 463.52Z" fill="white"/>
<path d="M1426.17 451.666L1439.99 451.666L1439.99 465.487C1437.9 465.182 1435.94 464.49 1434.19 463.474C1429.95 461.021 1426.91 456.718 1426.17 451.666Z" fill="white"/>
<path d="M1419.93 488.134C1416.94 488.134 1414.14 487.336 1411.73 485.94C1406.82 483.104 1403.52 477.797 1403.52 471.726C1403.52 468.733 1404.32 465.935 1405.71 463.521C1408.3 459.048 1412.95 455.92 1418.35 455.402C1420.4 463.472 1426.41 469.965 1434.19 472.688C1434.87 472.926 1435.56 473.132 1436.26 473.313C1435.46 481.63 1428.46 488.134 1419.93 488.134Z" fill="white"/>
<path d="M1411.73 495.152C1412.01 495.252 1412.3 495.344 1412.59 495.436L1412.59 495.472C1412.59 504.536 1405.24 511.881 1396.18 511.881C1393.19 511.881 1390.39 511.082 1387.98 509.687C1383.07 506.85 1379.78 501.543 1379.78 495.472C1379.78 492.479 1380.57 489.681 1381.97 487.267C1384.81 482.364 1390.11 479.063 1396.18 479.063L1396.22 479.063C1398.55 486.575 1404.34 492.565 1411.73 495.152Z" fill="white"/>
<path d="M1439.99 516.191L1409.84 516.191C1416.29 511.931 1420.63 504.742 1420.97 496.513C1428.79 496.19 1435.67 492.255 1439.99 486.331L1439.99 516.191Z" fill="white"/>
<path d="M1382.53 516.191L1375.46 516.191L1375.46 509.13C1377.32 511.934 1379.73 514.338 1382.53 516.191Z" fill="white"/>
<path d="M1439.99 516.191L1409.84 516.191C1416.29 511.931 1420.63 504.742 1420.97 496.513C1428.79 496.19 1435.67 492.255 1439.99 486.331L1439.99 516.191Z" fill="white"/>
<path d="M1419.93 488.134C1416.94 488.134 1414.14 487.336 1411.73 485.94C1406.82 483.104 1403.52 477.797 1403.52 471.726C1403.52 468.733 1404.32 465.935 1405.71 463.521C1408.3 459.048 1412.95 455.92 1418.35 455.402C1420.4 463.472 1426.41 469.965 1434.19 472.688C1434.87 472.926 1435.56 473.132 1436.26 473.313C1435.46 481.63 1428.46 488.134 1419.93 488.134Z" fill="white"/>
<path d="M1382.53 516.191L1375.46 516.191L1375.46 509.13C1377.32 511.934 1379.73 514.338 1382.53 516.191Z" fill="white"/>
<path d="M1396.18 511.881C1393.2 511.881 1390.39 511.083 1387.98 509.688C1383.07 506.851 1379.78 501.543 1379.78 495.472C1379.78 492.48 1380.57 489.682 1381.97 487.268C1384.81 482.365 1390.11 479.063 1396.18 479.063L1396.22 479.063C1398.55 486.575 1404.34 492.564 1411.73 495.152C1412.01 495.252 1412.3 495.344 1412.59 495.436L1412.59 495.472C1412.59 504.536 1405.24 511.881 1396.18 511.881Z" fill="white"/>
<path d="M1439.99 465.488C1437.9 465.183 1435.94 464.49 1434.19 463.475C1429.95 461.022 1426.91 456.719 1426.17 451.667L1439.99 451.667L1439.99 465.488Z" fill="white"/>
<path d="M1375.46 481.818L1375.46 451.666L1405.32 451.666C1401.29 454.606 1398.18 458.728 1396.5 463.52C1395.71 465.775 1395.24 468.178 1395.14 470.677C1386.91 471.018 1379.72 475.367 1375.46 481.818Z" fill="white"/>
<path d="M1439.97 129.047L1439.97 64.5222L1435.93 64.5222L1435.93 129.047L1439.97 129.047Z" fill="white"/>
<path d="M1427.88 129.046L1427.88 64.521L1419.83 64.521L1419.83 129.046L1427.88 129.046Z" fill="white"/>
<path d="M1411.78 129.046L1411.78 64.521L1403.67 64.521L1403.67 129.046L1411.78 129.046Z" fill="white"/>
<path d="M1395.62 129.046L1395.62 64.521L1387.54 64.521L1387.54 129.046L1395.62 129.046Z" fill="white"/>
<path d="M1379.49 129.046L1379.49 64.521L1375.45 64.521L1375.45 129.046L1379.49 129.046Z" fill="white"/>
<path d="M1439.97 0L1375.45 -3.55874e-06L1375.45 64.5213L1439.97 64.5213L1439.97 0ZM1391.42 32.2604C1391.42 23.2608 1398.71 15.9647 1407.71 15.9647C1416.71 15.9647 1424.01 23.2602 1424.01 32.2604C1424.01 41.2605 1416.71 48.5554 1407.71 48.5554C1398.71 48.556 1391.42 41.2605 1391.42 32.2604Z" fill="white"/>
<path d="M1415.86 169.607L1415.86 153.007L1399.56 153.007L1399.56 169.607L1415.86 169.607Z" fill="white"/>
<path d="M1439.97 129.046L1375.45 129.046L1375.45 193.571L1439.97 193.571L1439.97 129.046ZM1391.35 177.819L1391.35 144.798L1424.07 144.798L1424.07 177.819L1391.35 177.819Z" fill="white"/>
<path d="M1439.97 258.094L1439.97 251.346L1382.2 193.571L1375.45 193.571L1375.45 198.807L1434.74 258.094L1439.97 258.094Z" fill="white"/>
<path d="M1375.45 246.625L1386.92 258.095L1399 258.095L1375.45 234.544L1375.45 246.625Z" fill="white"/>
<path d="M1439.97 227.55L1405.99 193.571L1394.1 193.571L1439.97 239.448L1439.97 227.55Z" fill="white"/>
<path d="M1439.97 205.04L1428.5 193.571L1417.89 193.571L1439.97 215.652L1439.97 205.04Z" fill="white"/>
<path d="M1375.45 222.647L1410.9 258.094L1422.84 258.094L1375.45 210.705L1375.45 222.647Z" fill="white"/>
</svg>